<mxfile host="app.diagrams.net" agent="Mozilla/5.0 (Windows NT 10.0; Win64; x64) AppleWebKit/537.36 (KHTML, like Gecko) Chrome/127.0.0.0 Safari/537.36" version="24.7.12">
  <diagram name="Página-1" id="VpAJU4R8_qPCNM1twmQc">
    <mxGraphModel dx="1434" dy="738" grid="1" gridSize="11" guides="1" tooltips="1" connect="1" arrows="1" fold="1" page="1" pageScale="1" pageWidth="827" pageHeight="1169" math="0" shadow="0">
      <root>
        <mxCell id="0" />
        <mxCell id="1" parent="0" />
        <mxCell id="zMzSkc5_ZZJnqk-LBwLG-5" style="edgeStyle=orthogonalEdgeStyle;rounded=0;orthogonalLoop=1;jettySize=auto;html=1;exitX=0.5;exitY=1;exitDx=0;exitDy=0;" edge="1" parent="1" source="zMzSkc5_ZZJnqk-LBwLG-4" target="zMzSkc5_ZZJnqk-LBwLG-6">
          <mxGeometry relative="1" as="geometry">
            <mxPoint x="414" y="187" as="targetPoint" />
            <Array as="points">
              <mxPoint x="131" y="72" />
            </Array>
          </mxGeometry>
        </mxCell>
        <mxCell id="zMzSkc5_ZZJnqk-LBwLG-4" value="CONTROLE IPVA" style="rounded=1;whiteSpace=wrap;html=1;arcSize=50;" vertex="1" parent="1">
          <mxGeometry x="50" width="174" height="99" as="geometry" />
        </mxCell>
        <mxCell id="zMzSkc5_ZZJnqk-LBwLG-39" value="" style="edgeStyle=orthogonalEdgeStyle;rounded=0;orthogonalLoop=1;jettySize=auto;html=1;" edge="1" parent="1" source="zMzSkc5_ZZJnqk-LBwLG-6" target="zMzSkc5_ZZJnqk-LBwLG-38">
          <mxGeometry relative="1" as="geometry" />
        </mxCell>
        <mxCell id="zMzSkc5_ZZJnqk-LBwLG-6" value="(IN) NUMERO FINAL DA PLACA 0a9" style="rounded=0;whiteSpace=wrap;html=1;" vertex="1" parent="1">
          <mxGeometry x="349" y="11" width="130" height="60" as="geometry" />
        </mxCell>
        <mxCell id="zMzSkc5_ZZJnqk-LBwLG-41" value="" style="edgeStyle=orthogonalEdgeStyle;rounded=0;orthogonalLoop=1;jettySize=auto;html=1;" edge="1" parent="1" source="zMzSkc5_ZZJnqk-LBwLG-38" target="zMzSkc5_ZZJnqk-LBwLG-40">
          <mxGeometry relative="1" as="geometry" />
        </mxCell>
        <mxCell id="zMzSkc5_ZZJnqk-LBwLG-43" value="" style="edgeStyle=orthogonalEdgeStyle;rounded=0;orthogonalLoop=1;jettySize=auto;html=1;" edge="1" parent="1" source="zMzSkc5_ZZJnqk-LBwLG-38" target="zMzSkc5_ZZJnqk-LBwLG-42">
          <mxGeometry relative="1" as="geometry" />
        </mxCell>
        <mxCell id="zMzSkc5_ZZJnqk-LBwLG-38" value="CHECAR&lt;div&gt;0A9&lt;/div&gt;" style="rhombus;whiteSpace=wrap;html=1;rounded=0;" vertex="1" parent="1">
          <mxGeometry x="374" y="99" width="80" height="80" as="geometry" />
        </mxCell>
        <mxCell id="zMzSkc5_ZZJnqk-LBwLG-50" value="" style="edgeStyle=orthogonalEdgeStyle;rounded=0;orthogonalLoop=1;jettySize=auto;html=1;" edge="1" parent="1" source="zMzSkc5_ZZJnqk-LBwLG-40" target="zMzSkc5_ZZJnqk-LBwLG-49">
          <mxGeometry relative="1" as="geometry" />
        </mxCell>
        <mxCell id="zMzSkc5_ZZJnqk-LBwLG-40" value="SIM" style="whiteSpace=wrap;html=1;rounded=0;" vertex="1" parent="1">
          <mxGeometry x="627" y="84" width="120" height="60" as="geometry" />
        </mxCell>
        <mxCell id="zMzSkc5_ZZJnqk-LBwLG-45" value="" style="edgeStyle=orthogonalEdgeStyle;rounded=0;orthogonalLoop=1;jettySize=auto;html=1;" edge="1" parent="1" source="zMzSkc5_ZZJnqk-LBwLG-42" target="zMzSkc5_ZZJnqk-LBwLG-44">
          <mxGeometry relative="1" as="geometry" />
        </mxCell>
        <mxCell id="zMzSkc5_ZZJnqk-LBwLG-42" value="NÃO" style="whiteSpace=wrap;html=1;rounded=0;" vertex="1" parent="1">
          <mxGeometry x="77" y="154" width="120" height="60" as="geometry" />
        </mxCell>
        <mxCell id="zMzSkc5_ZZJnqk-LBwLG-115" style="edgeStyle=orthogonalEdgeStyle;rounded=0;orthogonalLoop=1;jettySize=auto;html=1;exitX=0.5;exitY=1;exitDx=0;exitDy=0;" edge="1" parent="1" source="zMzSkc5_ZZJnqk-LBwLG-44" target="zMzSkc5_ZZJnqk-LBwLG-46">
          <mxGeometry relative="1" as="geometry" />
        </mxCell>
        <mxCell id="zMzSkc5_ZZJnqk-LBwLG-44" value="PLACA ERRADA" style="whiteSpace=wrap;html=1;rounded=0;" vertex="1" parent="1">
          <mxGeometry y="264" width="120" height="60" as="geometry" />
        </mxCell>
        <mxCell id="zMzSkc5_ZZJnqk-LBwLG-46" value="(OUT)COLOCAR PLACA CERTA" style="whiteSpace=wrap;html=1;rounded=0;" vertex="1" parent="1">
          <mxGeometry y="374" width="120" height="60" as="geometry" />
        </mxCell>
        <mxCell id="zMzSkc5_ZZJnqk-LBwLG-83" style="edgeStyle=orthogonalEdgeStyle;rounded=0;orthogonalLoop=1;jettySize=auto;html=1;exitX=0.5;exitY=1;exitDx=0;exitDy=0;entryX=1;entryY=0.5;entryDx=0;entryDy=0;" edge="1" parent="1" source="zMzSkc5_ZZJnqk-LBwLG-49" target="zMzSkc5_ZZJnqk-LBwLG-74">
          <mxGeometry relative="1" as="geometry" />
        </mxCell>
        <mxCell id="zMzSkc5_ZZJnqk-LBwLG-84" style="edgeStyle=orthogonalEdgeStyle;rounded=0;orthogonalLoop=1;jettySize=auto;html=1;exitX=0.5;exitY=1;exitDx=0;exitDy=0;entryX=1;entryY=0.5;entryDx=0;entryDy=0;" edge="1" parent="1" source="zMzSkc5_ZZJnqk-LBwLG-49" target="zMzSkc5_ZZJnqk-LBwLG-65">
          <mxGeometry relative="1" as="geometry" />
        </mxCell>
        <mxCell id="zMzSkc5_ZZJnqk-LBwLG-85" style="edgeStyle=orthogonalEdgeStyle;rounded=0;orthogonalLoop=1;jettySize=auto;html=1;exitX=0.5;exitY=1;exitDx=0;exitDy=0;entryX=1;entryY=0.5;entryDx=0;entryDy=0;" edge="1" parent="1" source="zMzSkc5_ZZJnqk-LBwLG-49" target="zMzSkc5_ZZJnqk-LBwLG-66">
          <mxGeometry relative="1" as="geometry" />
        </mxCell>
        <mxCell id="zMzSkc5_ZZJnqk-LBwLG-86" style="edgeStyle=orthogonalEdgeStyle;rounded=0;orthogonalLoop=1;jettySize=auto;html=1;exitX=0.5;exitY=1;exitDx=0;exitDy=0;entryX=1;entryY=0.5;entryDx=0;entryDy=0;" edge="1" parent="1" source="zMzSkc5_ZZJnqk-LBwLG-49" target="zMzSkc5_ZZJnqk-LBwLG-67">
          <mxGeometry relative="1" as="geometry" />
        </mxCell>
        <mxCell id="zMzSkc5_ZZJnqk-LBwLG-87" style="edgeStyle=orthogonalEdgeStyle;rounded=0;orthogonalLoop=1;jettySize=auto;html=1;exitX=0.5;exitY=1;exitDx=0;exitDy=0;entryX=1;entryY=0.5;entryDx=0;entryDy=0;" edge="1" parent="1" source="zMzSkc5_ZZJnqk-LBwLG-49" target="zMzSkc5_ZZJnqk-LBwLG-69">
          <mxGeometry relative="1" as="geometry" />
        </mxCell>
        <mxCell id="zMzSkc5_ZZJnqk-LBwLG-88" style="edgeStyle=orthogonalEdgeStyle;rounded=0;orthogonalLoop=1;jettySize=auto;html=1;exitX=0.5;exitY=1;exitDx=0;exitDy=0;entryX=1;entryY=0.5;entryDx=0;entryDy=0;" edge="1" parent="1" source="zMzSkc5_ZZJnqk-LBwLG-49" target="zMzSkc5_ZZJnqk-LBwLG-70">
          <mxGeometry relative="1" as="geometry" />
        </mxCell>
        <mxCell id="zMzSkc5_ZZJnqk-LBwLG-89" style="edgeStyle=orthogonalEdgeStyle;rounded=0;orthogonalLoop=1;jettySize=auto;html=1;exitX=0.5;exitY=1;exitDx=0;exitDy=0;entryX=1;entryY=0.5;entryDx=0;entryDy=0;" edge="1" parent="1" source="zMzSkc5_ZZJnqk-LBwLG-49" target="zMzSkc5_ZZJnqk-LBwLG-71">
          <mxGeometry relative="1" as="geometry" />
        </mxCell>
        <mxCell id="zMzSkc5_ZZJnqk-LBwLG-90" style="edgeStyle=orthogonalEdgeStyle;rounded=0;orthogonalLoop=1;jettySize=auto;html=1;exitX=0.5;exitY=1;exitDx=0;exitDy=0;entryX=1;entryY=0.5;entryDx=0;entryDy=0;" edge="1" parent="1" source="zMzSkc5_ZZJnqk-LBwLG-49" target="zMzSkc5_ZZJnqk-LBwLG-72">
          <mxGeometry relative="1" as="geometry" />
        </mxCell>
        <mxCell id="zMzSkc5_ZZJnqk-LBwLG-91" style="edgeStyle=orthogonalEdgeStyle;rounded=0;orthogonalLoop=1;jettySize=auto;html=1;exitX=0.5;exitY=1;exitDx=0;exitDy=0;entryX=1;entryY=0.5;entryDx=0;entryDy=0;" edge="1" parent="1" source="zMzSkc5_ZZJnqk-LBwLG-49" target="zMzSkc5_ZZJnqk-LBwLG-73">
          <mxGeometry relative="1" as="geometry" />
        </mxCell>
        <mxCell id="zMzSkc5_ZZJnqk-LBwLG-93" style="edgeStyle=orthogonalEdgeStyle;rounded=0;orthogonalLoop=1;jettySize=auto;html=1;exitX=0.5;exitY=1;exitDx=0;exitDy=0;entryX=1;entryY=0.5;entryDx=0;entryDy=0;" edge="1" parent="1" source="zMzSkc5_ZZJnqk-LBwLG-49" target="zMzSkc5_ZZJnqk-LBwLG-92">
          <mxGeometry relative="1" as="geometry" />
        </mxCell>
        <mxCell id="zMzSkc5_ZZJnqk-LBwLG-49" value="SELECIONAR PLACA" style="whiteSpace=wrap;html=1;rounded=0;" vertex="1" parent="1">
          <mxGeometry x="693" y="187" width="121" height="61" as="geometry" />
        </mxCell>
        <mxCell id="zMzSkc5_ZZJnqk-LBwLG-64" style="edgeStyle=orthogonalEdgeStyle;rounded=0;orthogonalLoop=1;jettySize=auto;html=1;exitX=0.5;exitY=1;exitDx=0;exitDy=0;" edge="1" parent="1" source="zMzSkc5_ZZJnqk-LBwLG-49" target="zMzSkc5_ZZJnqk-LBwLG-49">
          <mxGeometry relative="1" as="geometry" />
        </mxCell>
        <mxCell id="zMzSkc5_ZZJnqk-LBwLG-105" value="" style="edgeStyle=orthogonalEdgeStyle;rounded=0;orthogonalLoop=1;jettySize=auto;html=1;" edge="1" parent="1" source="zMzSkc5_ZZJnqk-LBwLG-65" target="zMzSkc5_ZZJnqk-LBwLG-95">
          <mxGeometry relative="1" as="geometry" />
        </mxCell>
        <mxCell id="zMzSkc5_ZZJnqk-LBwLG-65" value="1" style="whiteSpace=wrap;html=1;rounded=0;" vertex="1" parent="1">
          <mxGeometry x="557" y="242" width="120" height="60" as="geometry" />
        </mxCell>
        <mxCell id="zMzSkc5_ZZJnqk-LBwLG-106" value="" style="edgeStyle=orthogonalEdgeStyle;rounded=0;orthogonalLoop=1;jettySize=auto;html=1;" edge="1" parent="1" source="zMzSkc5_ZZJnqk-LBwLG-66" target="zMzSkc5_ZZJnqk-LBwLG-96">
          <mxGeometry relative="1" as="geometry" />
        </mxCell>
        <mxCell id="zMzSkc5_ZZJnqk-LBwLG-66" value="2" style="whiteSpace=wrap;html=1;rounded=0;" vertex="1" parent="1">
          <mxGeometry x="557" y="330" width="120" height="60" as="geometry" />
        </mxCell>
        <mxCell id="zMzSkc5_ZZJnqk-LBwLG-107" value="" style="edgeStyle=orthogonalEdgeStyle;rounded=0;orthogonalLoop=1;jettySize=auto;html=1;" edge="1" parent="1" source="zMzSkc5_ZZJnqk-LBwLG-67" target="zMzSkc5_ZZJnqk-LBwLG-97">
          <mxGeometry relative="1" as="geometry" />
        </mxCell>
        <mxCell id="zMzSkc5_ZZJnqk-LBwLG-67" value="3" style="whiteSpace=wrap;html=1;rounded=0;" vertex="1" parent="1">
          <mxGeometry x="557" y="418" width="120" height="60" as="geometry" />
        </mxCell>
        <mxCell id="zMzSkc5_ZZJnqk-LBwLG-108" value="" style="edgeStyle=orthogonalEdgeStyle;rounded=0;orthogonalLoop=1;jettySize=auto;html=1;" edge="1" parent="1" source="zMzSkc5_ZZJnqk-LBwLG-69" target="zMzSkc5_ZZJnqk-LBwLG-98">
          <mxGeometry relative="1" as="geometry" />
        </mxCell>
        <mxCell id="zMzSkc5_ZZJnqk-LBwLG-69" value="4" style="whiteSpace=wrap;html=1;rounded=0;" vertex="1" parent="1">
          <mxGeometry x="557" y="506" width="120" height="60" as="geometry" />
        </mxCell>
        <mxCell id="zMzSkc5_ZZJnqk-LBwLG-109" value="" style="edgeStyle=orthogonalEdgeStyle;rounded=0;orthogonalLoop=1;jettySize=auto;html=1;" edge="1" parent="1" source="zMzSkc5_ZZJnqk-LBwLG-70" target="zMzSkc5_ZZJnqk-LBwLG-99">
          <mxGeometry relative="1" as="geometry" />
        </mxCell>
        <mxCell id="zMzSkc5_ZZJnqk-LBwLG-70" value="5" style="whiteSpace=wrap;html=1;rounded=0;" vertex="1" parent="1">
          <mxGeometry x="557" y="594" width="120" height="60" as="geometry" />
        </mxCell>
        <mxCell id="zMzSkc5_ZZJnqk-LBwLG-110" value="" style="edgeStyle=orthogonalEdgeStyle;rounded=0;orthogonalLoop=1;jettySize=auto;html=1;" edge="1" parent="1" source="zMzSkc5_ZZJnqk-LBwLG-71" target="zMzSkc5_ZZJnqk-LBwLG-100">
          <mxGeometry relative="1" as="geometry" />
        </mxCell>
        <mxCell id="zMzSkc5_ZZJnqk-LBwLG-71" value="6" style="whiteSpace=wrap;html=1;rounded=0;" vertex="1" parent="1">
          <mxGeometry x="557" y="682" width="120" height="60" as="geometry" />
        </mxCell>
        <mxCell id="zMzSkc5_ZZJnqk-LBwLG-111" value="" style="edgeStyle=orthogonalEdgeStyle;rounded=0;orthogonalLoop=1;jettySize=auto;html=1;" edge="1" parent="1" source="zMzSkc5_ZZJnqk-LBwLG-72" target="zMzSkc5_ZZJnqk-LBwLG-101">
          <mxGeometry relative="1" as="geometry" />
        </mxCell>
        <mxCell id="zMzSkc5_ZZJnqk-LBwLG-72" value="7" style="whiteSpace=wrap;html=1;rounded=0;" vertex="1" parent="1">
          <mxGeometry x="557" y="770" width="120" height="60" as="geometry" />
        </mxCell>
        <mxCell id="zMzSkc5_ZZJnqk-LBwLG-112" value="" style="edgeStyle=orthogonalEdgeStyle;rounded=0;orthogonalLoop=1;jettySize=auto;html=1;" edge="1" parent="1" source="zMzSkc5_ZZJnqk-LBwLG-73" target="zMzSkc5_ZZJnqk-LBwLG-102">
          <mxGeometry relative="1" as="geometry" />
        </mxCell>
        <mxCell id="zMzSkc5_ZZJnqk-LBwLG-73" value="8" style="whiteSpace=wrap;html=1;rounded=0;" vertex="1" parent="1">
          <mxGeometry x="557" y="858" width="120" height="60" as="geometry" />
        </mxCell>
        <mxCell id="zMzSkc5_ZZJnqk-LBwLG-104" value="" style="edgeStyle=orthogonalEdgeStyle;rounded=0;orthogonalLoop=1;jettySize=auto;html=1;" edge="1" parent="1" source="zMzSkc5_ZZJnqk-LBwLG-74" target="zMzSkc5_ZZJnqk-LBwLG-94">
          <mxGeometry relative="1" as="geometry" />
        </mxCell>
        <mxCell id="zMzSkc5_ZZJnqk-LBwLG-74" value="0" style="whiteSpace=wrap;html=1;rounded=0;" vertex="1" parent="1">
          <mxGeometry x="557" y="1037" width="120" height="60" as="geometry" />
        </mxCell>
        <mxCell id="zMzSkc5_ZZJnqk-LBwLG-113" value="" style="edgeStyle=orthogonalEdgeStyle;rounded=0;orthogonalLoop=1;jettySize=auto;html=1;" edge="1" parent="1" source="zMzSkc5_ZZJnqk-LBwLG-92" target="zMzSkc5_ZZJnqk-LBwLG-103">
          <mxGeometry relative="1" as="geometry" />
        </mxCell>
        <mxCell id="zMzSkc5_ZZJnqk-LBwLG-92" value="9" style="whiteSpace=wrap;html=1;rounded=0;" vertex="1" parent="1">
          <mxGeometry x="557" y="946" width="120" height="60" as="geometry" />
        </mxCell>
        <mxCell id="zMzSkc5_ZZJnqk-LBwLG-128" value="" style="edgeStyle=orthogonalEdgeStyle;rounded=0;orthogonalLoop=1;jettySize=auto;html=1;" edge="1" parent="1" source="zMzSkc5_ZZJnqk-LBwLG-94" target="zMzSkc5_ZZJnqk-LBwLG-118">
          <mxGeometry relative="1" as="geometry" />
        </mxCell>
        <mxCell id="zMzSkc5_ZZJnqk-LBwLG-94" value="&lt;span style=&quot;color: rgb(60, 60, 60); font-family: tahoma, sans-serif; font-size: 11px; text-align: left; background-color: rgb(210, 205, 185);&quot;&gt;Pagamento até 31/12&lt;/span&gt;" style="whiteSpace=wrap;html=1;rounded=0;" vertex="1" parent="1">
          <mxGeometry x="348" y="1037" width="120" height="60" as="geometry" />
        </mxCell>
        <mxCell id="zMzSkc5_ZZJnqk-LBwLG-129" value="" style="edgeStyle=orthogonalEdgeStyle;rounded=0;orthogonalLoop=1;jettySize=auto;html=1;" edge="1" parent="1" source="zMzSkc5_ZZJnqk-LBwLG-95" target="zMzSkc5_ZZJnqk-LBwLG-119">
          <mxGeometry relative="1" as="geometry" />
        </mxCell>
        <mxCell id="zMzSkc5_ZZJnqk-LBwLG-95" value="&lt;span style=&quot;color: rgb(60, 60, 60); font-family: tahoma, sans-serif; font-size: 11px; text-align: left; background-color: rgb(210, 205, 185);&quot;&gt;Pagamento até 30/04&lt;/span&gt;" style="whiteSpace=wrap;html=1;rounded=0;" vertex="1" parent="1">
          <mxGeometry x="348" y="242" width="120" height="60" as="geometry" />
        </mxCell>
        <mxCell id="zMzSkc5_ZZJnqk-LBwLG-130" value="" style="edgeStyle=orthogonalEdgeStyle;rounded=0;orthogonalLoop=1;jettySize=auto;html=1;" edge="1" parent="1" source="zMzSkc5_ZZJnqk-LBwLG-96" target="zMzSkc5_ZZJnqk-LBwLG-120">
          <mxGeometry relative="1" as="geometry" />
        </mxCell>
        <mxCell id="zMzSkc5_ZZJnqk-LBwLG-96" value="&lt;span style=&quot;color: rgb(60, 60, 60); font-family: tahoma, sans-serif; font-size: 11px; text-align: left; background-color: rgb(210, 205, 185);&quot;&gt;Pagamento até 31/05&lt;/span&gt;" style="whiteSpace=wrap;html=1;rounded=0;" vertex="1" parent="1">
          <mxGeometry x="348" y="330" width="120" height="60" as="geometry" />
        </mxCell>
        <mxCell id="zMzSkc5_ZZJnqk-LBwLG-131" value="" style="edgeStyle=orthogonalEdgeStyle;rounded=0;orthogonalLoop=1;jettySize=auto;html=1;" edge="1" parent="1" source="zMzSkc5_ZZJnqk-LBwLG-97" target="zMzSkc5_ZZJnqk-LBwLG-121">
          <mxGeometry relative="1" as="geometry" />
        </mxCell>
        <mxCell id="zMzSkc5_ZZJnqk-LBwLG-97" value="&lt;span style=&quot;color: rgb(60, 60, 60); font-family: tahoma, sans-serif; font-size: 11px; text-align: left; background-color: rgb(210, 205, 185);&quot;&gt;Pagamento até 30/06&lt;/span&gt;" style="whiteSpace=wrap;html=1;rounded=0;" vertex="1" parent="1">
          <mxGeometry x="348" y="418" width="120" height="60" as="geometry" />
        </mxCell>
        <mxCell id="zMzSkc5_ZZJnqk-LBwLG-132" value="" style="edgeStyle=orthogonalEdgeStyle;rounded=0;orthogonalLoop=1;jettySize=auto;html=1;" edge="1" parent="1" source="zMzSkc5_ZZJnqk-LBwLG-98" target="zMzSkc5_ZZJnqk-LBwLG-122">
          <mxGeometry relative="1" as="geometry" />
        </mxCell>
        <mxCell id="zMzSkc5_ZZJnqk-LBwLG-98" value="&lt;span style=&quot;color: rgb(60, 60, 60); font-family: tahoma, sans-serif; font-size: 11px; text-align: left; background-color: rgb(210, 205, 185);&quot;&gt;Pagamento até 31/07&lt;/span&gt;" style="whiteSpace=wrap;html=1;rounded=0;" vertex="1" parent="1">
          <mxGeometry x="348" y="506" width="120" height="60" as="geometry" />
        </mxCell>
        <mxCell id="zMzSkc5_ZZJnqk-LBwLG-133" value="" style="edgeStyle=orthogonalEdgeStyle;rounded=0;orthogonalLoop=1;jettySize=auto;html=1;" edge="1" parent="1" source="zMzSkc5_ZZJnqk-LBwLG-99" target="zMzSkc5_ZZJnqk-LBwLG-123">
          <mxGeometry relative="1" as="geometry" />
        </mxCell>
        <mxCell id="zMzSkc5_ZZJnqk-LBwLG-99" value="&lt;span style=&quot;color: rgb(60, 60, 60); font-family: tahoma, sans-serif; font-size: 11px; text-align: left; background-color: rgb(210, 205, 185);&quot;&gt;Pagamento até 31/08&lt;/span&gt;" style="whiteSpace=wrap;html=1;rounded=0;" vertex="1" parent="1">
          <mxGeometry x="348" y="594" width="120" height="60" as="geometry" />
        </mxCell>
        <mxCell id="zMzSkc5_ZZJnqk-LBwLG-134" value="" style="edgeStyle=orthogonalEdgeStyle;rounded=0;orthogonalLoop=1;jettySize=auto;html=1;" edge="1" parent="1" source="zMzSkc5_ZZJnqk-LBwLG-100" target="zMzSkc5_ZZJnqk-LBwLG-124">
          <mxGeometry relative="1" as="geometry" />
        </mxCell>
        <mxCell id="zMzSkc5_ZZJnqk-LBwLG-100" value="&lt;span style=&quot;color: rgb(60, 60, 60); font-family: tahoma, sans-serif; font-size: 11px; text-align: left; background-color: rgb(210, 205, 185);&quot;&gt;Pagamento até 30/09&lt;/span&gt;" style="whiteSpace=wrap;html=1;rounded=0;" vertex="1" parent="1">
          <mxGeometry x="348" y="682" width="120" height="60" as="geometry" />
        </mxCell>
        <mxCell id="zMzSkc5_ZZJnqk-LBwLG-135" value="" style="edgeStyle=orthogonalEdgeStyle;rounded=0;orthogonalLoop=1;jettySize=auto;html=1;" edge="1" parent="1" source="zMzSkc5_ZZJnqk-LBwLG-101" target="zMzSkc5_ZZJnqk-LBwLG-125">
          <mxGeometry relative="1" as="geometry" />
        </mxCell>
        <mxCell id="zMzSkc5_ZZJnqk-LBwLG-101" value="&lt;span style=&quot;color: rgb(60, 60, 60); font-family: tahoma, sans-serif; font-size: 11px; text-align: left; background-color: rgb(210, 205, 185);&quot;&gt;Pagamento até 31/10&lt;/span&gt;" style="whiteSpace=wrap;html=1;rounded=0;" vertex="1" parent="1">
          <mxGeometry x="348" y="770" width="120" height="60" as="geometry" />
        </mxCell>
        <mxCell id="zMzSkc5_ZZJnqk-LBwLG-136" value="" style="edgeStyle=orthogonalEdgeStyle;rounded=0;orthogonalLoop=1;jettySize=auto;html=1;" edge="1" parent="1" source="zMzSkc5_ZZJnqk-LBwLG-102" target="zMzSkc5_ZZJnqk-LBwLG-126">
          <mxGeometry relative="1" as="geometry" />
        </mxCell>
        <mxCell id="zMzSkc5_ZZJnqk-LBwLG-102" value="&lt;span style=&quot;color: rgb(60, 60, 60); font-family: tahoma, sans-serif; font-size: 11px; text-align: left; background-color: rgb(210, 205, 185);&quot;&gt;Pagamento até 30/11&lt;/span&gt;" style="whiteSpace=wrap;html=1;rounded=0;" vertex="1" parent="1">
          <mxGeometry x="348" y="858" width="120" height="60" as="geometry" />
        </mxCell>
        <mxCell id="zMzSkc5_ZZJnqk-LBwLG-103" value="&lt;span style=&quot;color: rgb(60, 60, 60); font-family: tahoma, sans-serif; font-size: 11px; text-align: left; background-color: rgb(210, 205, 185);&quot;&gt;Pagamento até 31/12&lt;/span&gt;" style="whiteSpace=wrap;html=1;rounded=0;" vertex="1" parent="1">
          <mxGeometry x="348" y="946" width="120" height="60" as="geometry" />
        </mxCell>
        <mxCell id="zMzSkc5_ZZJnqk-LBwLG-118" value="&lt;div style=&quot;&quot;&gt;&lt;font face=&quot;tahoma, sans-serif&quot; color=&quot;#3c3c3c&quot;&gt;&lt;span style=&quot;font-size: 11px; background-color: rgb(210, 205, 185);&quot;&gt;(OUT) PAGAR ATÉ A DATA&amp;nbsp;&lt;/span&gt;&lt;/font&gt;&lt;/div&gt;" style="whiteSpace=wrap;html=1;rounded=0;align=center;" vertex="1" parent="1">
          <mxGeometry x="198" y="1037" width="120" height="60" as="geometry" />
        </mxCell>
        <mxCell id="zMzSkc5_ZZJnqk-LBwLG-119" value="&lt;span style=&quot;color: rgb(60, 60, 60); font-family: tahoma, sans-serif; font-size: 11px; background-color: rgb(210, 205, 185);&quot;&gt;(OUT) PAGAR ATÉ A DATA&amp;nbsp;&lt;/span&gt;" style="whiteSpace=wrap;html=1;rounded=0;" vertex="1" parent="1">
          <mxGeometry x="198" y="242" width="120" height="60" as="geometry" />
        </mxCell>
        <mxCell id="zMzSkc5_ZZJnqk-LBwLG-120" value="&lt;span style=&quot;color: rgb(60, 60, 60); font-family: tahoma, sans-serif; font-size: 11px; background-color: rgb(210, 205, 185);&quot;&gt;(OUT) PAGAR ATÉ A DATA&amp;nbsp;&lt;/span&gt;" style="whiteSpace=wrap;html=1;rounded=0;" vertex="1" parent="1">
          <mxGeometry x="198" y="330" width="120" height="60" as="geometry" />
        </mxCell>
        <mxCell id="zMzSkc5_ZZJnqk-LBwLG-121" value="&lt;span style=&quot;color: rgb(60, 60, 60); font-family: tahoma, sans-serif; font-size: 11px; background-color: rgb(210, 205, 185);&quot;&gt;(OUT) PAGAR ATÉ A DATA&amp;nbsp;&lt;/span&gt;" style="whiteSpace=wrap;html=1;rounded=0;" vertex="1" parent="1">
          <mxGeometry x="198" y="418" width="120" height="60" as="geometry" />
        </mxCell>
        <mxCell id="zMzSkc5_ZZJnqk-LBwLG-122" value="&lt;span style=&quot;color: rgb(60, 60, 60); font-family: tahoma, sans-serif; font-size: 11px; background-color: rgb(210, 205, 185);&quot;&gt;(OUT) PAGAR ATÉ A DATA&amp;nbsp;&lt;/span&gt;" style="whiteSpace=wrap;html=1;rounded=0;" vertex="1" parent="1">
          <mxGeometry x="198" y="506" width="120" height="60" as="geometry" />
        </mxCell>
        <mxCell id="zMzSkc5_ZZJnqk-LBwLG-123" value="&lt;span style=&quot;color: rgb(60, 60, 60); font-family: tahoma, sans-serif; font-size: 11px; background-color: rgb(210, 205, 185);&quot;&gt;(OUT) PAGAR ATÉ A DATA&amp;nbsp;&lt;/span&gt;" style="whiteSpace=wrap;html=1;rounded=0;" vertex="1" parent="1">
          <mxGeometry x="198" y="594" width="120" height="60" as="geometry" />
        </mxCell>
        <mxCell id="zMzSkc5_ZZJnqk-LBwLG-124" value="&lt;span style=&quot;color: rgb(60, 60, 60); font-family: tahoma, sans-serif; font-size: 11px; background-color: rgb(210, 205, 185);&quot;&gt;(OUT) PAGAR ATÉ A DATA&amp;nbsp;&lt;/span&gt;" style="whiteSpace=wrap;html=1;rounded=0;" vertex="1" parent="1">
          <mxGeometry x="198" y="682" width="120" height="60" as="geometry" />
        </mxCell>
        <mxCell id="zMzSkc5_ZZJnqk-LBwLG-125" value="&lt;span style=&quot;color: rgb(60, 60, 60); font-family: tahoma, sans-serif; font-size: 11px; background-color: rgb(210, 205, 185);&quot;&gt;(OUT) PAGAR ATÉ A DATA&amp;nbsp;&lt;/span&gt;" style="whiteSpace=wrap;html=1;rounded=0;" vertex="1" parent="1">
          <mxGeometry x="198" y="770" width="120" height="60" as="geometry" />
        </mxCell>
        <mxCell id="zMzSkc5_ZZJnqk-LBwLG-126" value="&lt;span style=&quot;color: rgb(60, 60, 60); font-family: tahoma, sans-serif; font-size: 11px; background-color: rgb(210, 205, 185);&quot;&gt;(OUT) PAGAR ATÉ A DATA&amp;nbsp;&lt;/span&gt;" style="whiteSpace=wrap;html=1;rounded=0;" vertex="1" parent="1">
          <mxGeometry x="198" y="858" width="120" height="60" as="geometry" />
        </mxCell>
        <mxCell id="zMzSkc5_ZZJnqk-LBwLG-127" value="&lt;span style=&quot;color: rgb(60, 60, 60); font-family: tahoma, sans-serif; font-size: 11px; background-color: rgb(210, 205, 185);&quot;&gt;(OUT) PAGAR ATÉ A DATA&amp;nbsp;&lt;/span&gt;" style="whiteSpace=wrap;html=1;rounded=0;" vertex="1" parent="1">
          <mxGeometry x="198" y="946" width="120" height="60" as="geometry" />
        </mxCell>
      </root>
    </mxGraphModel>
  </diagram>
</mxfile>
